<svg xmlns="http://www.w3.org/2000/svg"  viewBox="0 0 32 32">
  <path d="M28 24.2V12.4c0 .4-.6.7-.9 1-2.7 2.1-4.8 3.8-6.5 5.2-.5.4-.9.8-1.2 1-.3.3-.8.6-1.3.9-.5.3-1.1.5-1.5.5h-.1c-.5 0-1-.2-1.6-.5-.6-.2-1-.5-1.3-.8-.3-.3-.7-.6-1.3-1.1-1.6-1.4-3.6-3.1-6.4-5.2-.4-.3-.9-.7-.9-1v11.8c0 .1-.1.4 0 .5.1.1.1.3.2.3h22.6c.1 0 .1-.2.2-.3.1-.1 0-.4 0-.5zm0-16.1v-.4s.1-.1.1-.2v-.2l-.1-.1-.1-.1s-.1-.1-.2-.1H5.1c-.1 0-.2.1-.3.2-.1.1-.1.2-.2.3 0 1.7.8 3.2 2.3 4.4 2 1.6 4 3.2 6.2 4.9.1 0 .3.2.5.4s.5.4.7.6c.2.1.4.3.7.5.3.2.5.4.8.5.3.1.4.2.7.2h.1c.2 0 .4-.1.7-.2.3-.1.5-.3.8-.5.3-.2.5-.4.7-.5.2-.1.4-.4.7-.6.3-.2.5-.4.5-.4 2.1-1.7 4.2-3.3 6.2-4.9.5-.4.9-1 1.4-1.8.5-.8.4-1.4.4-2zm2-.6v16.7c0 .7-.1 1.4-.6 1.9s-.9.9-1.6.9H5.2c-.7 0-1.1-.4-1.6-.9S3 24.9 3 24.2V7.5c0-.7.1-1.3.6-1.8S4.5 5 5.2 5h22.6c.7 0 1.1.3 1.6.7.5.4.6 1.1.6 1.8z"/>
</svg>
